<mxfile host="Electron" modified="2023-11-07T22:29:08.387Z" agent="Mozilla/5.0 (X11; Linux x86_64) AppleWebKit/537.36 (KHTML, like Gecko) draw.io/22.0.3 Chrome/114.0.5735.289 Electron/25.8.4 Safari/537.36" etag="EHCseH_K-TCo9CxOfCZn" version="22.0.3" type="device">
  <diagram name="Page-1" id="vZYncm0iwkFmzUJg3JkG">
    <mxGraphModel dx="1114" dy="1027" grid="1" gridSize="10" guides="1" tooltips="1" connect="1" arrows="1" fold="1" page="1" pageScale="1" pageWidth="850" pageHeight="1100" math="0" shadow="0">
      <root>
        <mxCell id="0" />
        <mxCell id="1" parent="0" />
        <mxCell id="Mzn8VqdAStBIpZhjOCHu-12" value="" style="rounded=1;whiteSpace=wrap;html=1;arcSize=2;strokeWidth=3;" parent="1" vertex="1">
          <mxGeometry x="110" y="30" width="280" height="370" as="geometry" />
        </mxCell>
        <mxCell id="Mzn8VqdAStBIpZhjOCHu-45" value="" style="rounded=1;whiteSpace=wrap;html=1;strokeWidth=2;arcSize=3;" parent="1" vertex="1">
          <mxGeometry x="135" y="100" width="205" height="190" as="geometry" />
        </mxCell>
        <mxCell id="Mzn8VqdAStBIpZhjOCHu-44" value="" style="rounded=1;whiteSpace=wrap;html=1;strokeWidth=2;arcSize=3;dashed=1;" parent="1" vertex="1">
          <mxGeometry x="145" y="110" width="205" height="190" as="geometry" />
        </mxCell>
        <mxCell id="Mzn8VqdAStBIpZhjOCHu-1" value="MyLab.Task.Runtime" style="rounded=1;whiteSpace=wrap;html=1;arcSize=2;verticalAlign=top;strokeWidth=3;fontSize=18;fontFamily=Helvetica;fontStyle=1;fillColor=#f5f5f5;strokeColor=#666666;fontColor=#333333;" parent="1" vertex="1">
          <mxGeometry x="110" y="430" width="670" height="380" as="geometry" />
        </mxCell>
        <mxCell id="Mzn8VqdAStBIpZhjOCHu-14" value="&lt;div style=&quot;background-color: rgb(255, 255, 255); font-size: 14px; line-height: 19px;&quot;&gt;/etc/task-runtime/assets&lt;/div&gt;" style="text;html=1;strokeColor=none;fillColor=none;align=center;verticalAlign=middle;whiteSpace=wrap;rounded=0;fontFamily=Courier New;fontSize=14;" parent="1" vertex="1">
          <mxGeometry x="155.16" y="50" width="220" height="30" as="geometry" />
        </mxCell>
        <mxCell id="Mzn8VqdAStBIpZhjOCHu-15" value="" style="image;aspect=fixed;html=1;points=[];align=center;fontSize=12;image=img/lib/azure2/general/Folder_Blank.svg;" parent="1" vertex="1">
          <mxGeometry x="124.84" y="53" width="24.64" height="20" as="geometry" />
        </mxCell>
        <mxCell id="Mzn8VqdAStBIpZhjOCHu-19" value="" style="rounded=1;whiteSpace=wrap;html=1;strokeWidth=2;arcSize=3;" parent="1" vertex="1">
          <mxGeometry x="155" y="120" width="205" height="190" as="geometry" />
        </mxCell>
        <mxCell id="Mzn8VqdAStBIpZhjOCHu-16" value="" style="verticalLabelPosition=bottom;html=1;verticalAlign=top;align=center;strokeColor=none;fillColor=#00BEF2;shape=mxgraph.azure.startup_task;pointerEvents=1;" parent="1" vertex="1">
          <mxGeometry x="176" y="130" width="30" height="30" as="geometry" />
        </mxCell>
        <mxCell id="Mzn8VqdAStBIpZhjOCHu-20" value="Task Asset Library" style="text;html=1;strokeColor=none;fillColor=none;align=center;verticalAlign=middle;whiteSpace=wrap;rounded=0;" parent="1" vertex="1">
          <mxGeometry x="204" y="130" width="140" height="30" as="geometry" />
        </mxCell>
        <mxCell id="Mzn8VqdAStBIpZhjOCHu-26" value="" style="rounded=1;whiteSpace=wrap;html=1;strokeWidth=3;arcSize=3;" parent="1" vertex="1">
          <mxGeometry x="420" y="30" width="360" height="370" as="geometry" />
        </mxCell>
        <mxCell id="Mzn8VqdAStBIpZhjOCHu-35" style="edgeStyle=orthogonalEdgeStyle;rounded=0;orthogonalLoop=1;jettySize=auto;html=1;dashed=1;endSize=18;strokeWidth=2;endArrow=block;endFill=0;jumpSize=7;entryX=0;entryY=0.5;entryDx=0;entryDy=0;exitX=1;exitY=0.5;exitDx=0;exitDy=0;" parent="1" source="Mzn8VqdAStBIpZhjOCHu-33" target="Mzn8VqdAStBIpZhjOCHu-27" edge="1">
          <mxGeometry relative="1" as="geometry">
            <mxPoint x="360" y="-40" as="sourcePoint" />
          </mxGeometry>
        </mxCell>
        <mxCell id="Mzn8VqdAStBIpZhjOCHu-27" value="&lt;span style=&quot;font-weight: normal;&quot;&gt;&amp;lt;&amp;lt;interface&amp;gt;&amp;gt;&lt;/span&gt;&lt;br&gt;ITaskStartup" style="swimlane;fontStyle=1;align=center;verticalAlign=middle;childLayout=stackLayout;horizontal=1;startSize=29;horizontalStack=0;resizeParent=1;resizeParentMax=0;resizeLast=0;collapsible=0;marginBottom=0;html=1;whiteSpace=wrap;strokeWidth=2;" parent="1" vertex="1">
          <mxGeometry x="435" y="205" width="330" height="79" as="geometry" />
        </mxCell>
        <mxCell id="Mzn8VqdAStBIpZhjOCHu-28" value="+ AddConfiguration(IConfigurationBuilder)&lt;br&gt;+ AddServices(IServiceCollection. IConfiguration)" style="text;html=1;strokeColor=none;fillColor=none;align=left;verticalAlign=middle;spacingLeft=4;spacingRight=4;overflow=hidden;rotatable=0;points=[[0,0.5],[1,0.5]];portConstraint=eastwest;whiteSpace=wrap;" parent="Mzn8VqdAStBIpZhjOCHu-27" vertex="1">
          <mxGeometry y="29" width="330" height="50" as="geometry" />
        </mxCell>
        <mxCell id="Mzn8VqdAStBIpZhjOCHu-29" value="" style="verticalLabelPosition=bottom;html=1;verticalAlign=top;align=center;strokeColor=none;fillColor=#00BEF2;shape=mxgraph.azure.startup_task;pointerEvents=1;" parent="1" vertex="1">
          <mxGeometry x="499.38" y="48" width="30" height="30" as="geometry" />
        </mxCell>
        <mxCell id="Mzn8VqdAStBIpZhjOCHu-30" value="MyLab.Task.RuntimeSdk" style="text;html=1;strokeColor=none;fillColor=none;align=center;verticalAlign=middle;whiteSpace=wrap;rounded=0;fontFamily=Courier New;fontSize=14;" parent="1" vertex="1">
          <mxGeometry x="560.63" y="50" width="140" height="30" as="geometry" />
        </mxCell>
        <mxCell id="Mzn8VqdAStBIpZhjOCHu-31" value="" style="rounded=0;whiteSpace=wrap;html=1;strokeWidth=2;" parent="1" vertex="1">
          <mxGeometry x="188" y="195" width="120" height="60" as="geometry" />
        </mxCell>
        <mxCell id="Mzn8VqdAStBIpZhjOCHu-32" value="" style="rounded=0;whiteSpace=wrap;html=1;dashed=1;strokeWidth=2;" parent="1" vertex="1">
          <mxGeometry x="198" y="205" width="120" height="60" as="geometry" />
        </mxCell>
        <mxCell id="Mzn8VqdAStBIpZhjOCHu-33" value="TaskStartup" style="rounded=0;whiteSpace=wrap;html=1;strokeWidth=2;" parent="1" vertex="1">
          <mxGeometry x="208" y="215" width="120" height="60" as="geometry" />
        </mxCell>
        <mxCell id="Mzn8VqdAStBIpZhjOCHu-39" value="Task Registry" style="rounded=1;whiteSpace=wrap;html=1;verticalAlign=top;strokeWidth=2;arcSize=4;" parent="1" vertex="1">
          <mxGeometry x="445" y="490" width="225" height="170" as="geometry" />
        </mxCell>
        <mxCell id="Mzn8VqdAStBIpZhjOCHu-54" style="edgeStyle=orthogonalEdgeStyle;rounded=0;orthogonalLoop=1;jettySize=auto;html=1;entryX=0.5;entryY=1;entryDx=0;entryDy=0;strokeWidth=2;" parent="1" source="Mzn8VqdAStBIpZhjOCHu-49" target="Mzn8VqdAStBIpZhjOCHu-39" edge="1">
          <mxGeometry relative="1" as="geometry" />
        </mxCell>
        <mxCell id="Mzn8VqdAStBIpZhjOCHu-49" value="Task Scheduler" style="rounded=1;whiteSpace=wrap;html=1;verticalAlign=top;strokeWidth=2;arcSize=6;" parent="1" vertex="1">
          <mxGeometry x="220" y="645" width="120" height="110" as="geometry" />
        </mxCell>
        <mxCell id="Mzn8VqdAStBIpZhjOCHu-43" value="" style="sketch=0;pointerEvents=1;shadow=0;dashed=0;html=1;strokeColor=none;fillColor=#505050;labelPosition=center;verticalLabelPosition=bottom;verticalAlign=top;outlineConnect=0;align=center;shape=mxgraph.office.concepts.clock;strokeWidth=2;" parent="1" vertex="1">
          <mxGeometry x="257.5" y="690" width="45" height="45" as="geometry" />
        </mxCell>
        <mxCell id="Mzn8VqdAStBIpZhjOCHu-50" value="Task" style="rounded=1;whiteSpace=wrap;html=1;strokeWidth=2;" parent="1" vertex="1">
          <mxGeometry x="487.5" y="550" width="120" height="60" as="geometry" />
        </mxCell>
        <mxCell id="Mzn8VqdAStBIpZhjOCHu-51" value="Task" style="rounded=1;whiteSpace=wrap;html=1;strokeWidth=2;dashed=1;" parent="1" vertex="1">
          <mxGeometry x="497.5" y="560" width="120" height="60" as="geometry" />
        </mxCell>
        <mxCell id="Mzn8VqdAStBIpZhjOCHu-52" value="Task" style="rounded=1;whiteSpace=wrap;html=1;strokeWidth=2;" parent="1" vertex="1">
          <mxGeometry x="507.5" y="570" width="120" height="60" as="geometry" />
        </mxCell>
        <mxCell id="Mzn8VqdAStBIpZhjOCHu-55" value="&lt;span style=&quot;font-weight: normal;&quot;&gt;&amp;lt;&amp;lt;interface&amp;gt;&amp;gt;&lt;/span&gt;&lt;br&gt;ITaskLogic" style="swimlane;fontStyle=1;align=center;verticalAlign=middle;childLayout=stackLayout;horizontal=1;startSize=29;horizontalStack=0;resizeParent=1;resizeParentMax=0;resizeLast=0;collapsible=0;marginBottom=0;html=1;whiteSpace=wrap;strokeWidth=2;" parent="1" vertex="1">
          <mxGeometry x="435" y="300" width="330" height="79" as="geometry" />
        </mxCell>
        <mxCell id="Mzn8VqdAStBIpZhjOCHu-56" value="+ PerformAsync(TaskIterationContext, CancellationToken)" style="text;html=1;strokeColor=none;fillColor=none;align=left;verticalAlign=middle;spacingLeft=4;spacingRight=4;overflow=hidden;rotatable=0;points=[[0,0.5],[1,0.5]];portConstraint=eastwest;whiteSpace=wrap;" parent="Mzn8VqdAStBIpZhjOCHu-55" vertex="1">
          <mxGeometry y="29" width="330" height="50" as="geometry" />
        </mxCell>
        <mxCell id="Mzn8VqdAStBIpZhjOCHu-57" style="edgeStyle=orthogonalEdgeStyle;rounded=0;orthogonalLoop=1;jettySize=auto;html=1;entryX=1;entryY=0.5;entryDx=0;entryDy=0;strokeWidth=2;endSize=18;endArrow=block;endFill=0;exitX=1;exitY=0.5;exitDx=0;exitDy=0;dashed=1;" parent="1" source="Mzn8VqdAStBIpZhjOCHu-52" target="Mzn8VqdAStBIpZhjOCHu-56" edge="1">
          <mxGeometry relative="1" as="geometry">
            <Array as="points">
              <mxPoint x="820" y="600" />
              <mxPoint x="820" y="354" />
            </Array>
          </mxGeometry>
        </mxCell>
        <mxCell id="Mzn8VqdAStBIpZhjOCHu-48" style="edgeStyle=orthogonalEdgeStyle;rounded=0;orthogonalLoop=1;jettySize=auto;html=1;entryX=0;entryY=0.5;entryDx=0;entryDy=0;strokeWidth=2;exitX=0.5;exitY=1;exitDx=0;exitDy=0;" parent="1" source="Mzn8VqdAStBIpZhjOCHu-33" target="Mzn8VqdAStBIpZhjOCHu-50" edge="1">
          <mxGeometry relative="1" as="geometry">
            <Array as="points">
              <mxPoint x="268" y="580" />
            </Array>
            <mxPoint x="220" y="580" as="targetPoint" />
          </mxGeometry>
        </mxCell>
      </root>
    </mxGraphModel>
  </diagram>
</mxfile>
